<?xml version="1.0" encoding="utf-8"?>
<!-- Generator: Adobe Illustrator 17.1.0, SVG Export Plug-In . SVG Version: 6.00 Build 0)  -->
<!DOCTYPE svg PUBLIC "-//W3C//DTD SVG 1.1//EN" "http://www.w3.org/Graphics/SVG/1.1/DTD/svg11.dtd">
<svg version="1.1" id="Layer_1" xmlns="http://www.w3.org/2000/svg" xmlns:xlink="http://www.w3.org/1999/xlink" x="0px" y="0px"
	 viewBox="0 0 100 100" enable-background="new 0 0 100 100" xml:space="preserve">
<g>
	<path fill="#010101" d="M100,50c0,27.7-22.3,50-50,50S0,77.7,0,50S22.3,0,50,0S100,22.3,100,50z M87.5,31.7
		c-2.5,1.1-5.3,1.9-8.2,2.2c3-1.8,5.1-4.5,6.1-7.9c-2.8,1.7-5.7,2.8-8.9,3.5C74,26.8,70.3,25,66.2,25c-7.9,0-14.1,6.3-14.1,14.3
		c0,1,0.1,2.2,0.3,3.2C40.6,41.9,30.1,36.2,23,27.5c-1.2,2.2-1.9,4.6-1.9,7.2c0,5,2.4,9.3,6.2,11.8c-2.3,0-4.5-0.7-6.4-1.8v0.1
		c0,6.9,4.9,12.6,11.4,14c-1.2,0.3-2.4,0.4-3.7,0.4c-0.9,0-1.9-0.1-2.7-0.2c1.8,5.7,7.1,9.5,13.2,9.6c-4.9,3.8-10.9,6.5-17.6,6.5
		c-1.1,0-2.3-0.1-3.3-0.2c6.2,4.1,13.8,6.2,21.7,6.2c26.2,0,40.4-21.6,40.4-40.4c0-0.6,0-1.3,0-1.9C83.2,37.1,85.5,34.5,87.5,31.7z"
		/>
</g>
</svg>
