<?xml version="1.0" encoding="utf-8"?>
<!-- Generator: Adobe Illustrator 17.1.0, SVG Export Plug-In . SVG Version: 6.00 Build 0)  -->
<!DOCTYPE svg PUBLIC "-//W3C//DTD SVG 1.1//EN" "http://www.w3.org/Graphics/SVG/1.1/DTD/svg11.dtd">
<svg version="1.1" id="Layer_1" xmlns="http://www.w3.org/2000/svg" xmlns:xlink="http://www.w3.org/1999/xlink" x="0px" y="0px"
	 viewBox="0 0 100 100" enable-background="new 0 0 100 100" xml:space="preserve">
<path fill="#010101" d="M50,0C22.4,0,0,22.4,0,50c0,27.6,22.4,50,50,50s50-22.4,50-50C100,22.4,77.6,0,50,0z M81.8,49.1
	c-0.2,0.5-0.7,0.9-1.3,0.9H74v29.1c0,0.7-0.7,0.9-1.4,0.9H59.3c-0.7,0-1.3-0.2-1.3-0.9V57H42v22.1c0,0.7-0.6,0.9-1.3,0.9H27.4
	c-0.7,0-1.4-0.2-1.4-0.9V50h-6.5c-0.5,0-1-0.3-1.3-0.9c-0.1-0.5-0.1-1.1,0.3-1.5L49,17.1c0.5-0.5,1.4-0.5,1.9,0l30.5,30.6
	C81.9,48.1,81.9,48.6,81.8,49.1z"/>
</svg>
