<?xml version="1.0" encoding="utf-8"?>
<!-- Generator: Adobe Illustrator 17.1.0, SVG Export Plug-In . SVG Version: 6.00 Build 0)  -->
<!DOCTYPE svg PUBLIC "-//W3C//DTD SVG 1.1//EN" "http://www.w3.org/Graphics/SVG/1.1/DTD/svg11.dtd">
<svg version="1.1" id="Layer_1" xmlns="http://www.w3.org/2000/svg" xmlns:xlink="http://www.w3.org/1999/xlink" x="0px" y="0px"
	 viewBox="0 0 400 200" enable-background="new 0 0 400 200" xml:space="preserve">
<path d="M50,0C22.4,0,0,22.4,0,50c0,27.6,22.4,50,50,50s50-22.4,50-50C100,22.4,77.6,0,50,0z M81.8,49.1c-0.2,0.5-0.7,0.9-1.3,0.9
	H74v29.1c0,0.7-0.7,0.9-1.4,0.9H59.3c-0.7,0-1.3-0.2-1.3-0.9V57H42v22.1c0,0.7-0.6,0.9-1.3,0.9H27.4c-0.7,0-1.4-0.2-1.4-0.9V50h-6.5
	c-0.5,0-1-0.3-1.3-0.9c-0.1-0.5-0.1-1.1,0.3-1.5L49,17.1c0.5-0.5,1.4-0.5,1.9,0l30.5,30.6C81.9,48.1,81.9,48.6,81.8,49.1z"/>
<g>
	<path d="M200,50c0,27.7-22.3,50-50,50s-50-22.3-50-50s22.3-50,50-50S200,22.3,200,50z M187.5,31.7c-2.5,1.1-5.3,1.9-8.2,2.2
		c3-1.8,5.1-4.5,6.1-7.9c-2.8,1.7-5.7,2.8-8.9,3.5c-2.5-2.7-6.2-4.5-10.3-4.5c-7.9,0-14.1,6.3-14.1,14.3c0,1,0.1,2.2,0.3,3.2
		c-11.8-0.6-22.4-6.2-29.4-14.9c-1.2,2.2-1.9,4.6-1.9,7.2c0,5,2.4,9.3,6.2,11.8c-2.3,0-4.5-0.7-6.4-1.8v0.1c0,6.9,4.9,12.6,11.4,14
		c-1.2,0.3-2.4,0.4-3.7,0.4c-0.9,0-1.9-0.1-2.7-0.2c1.8,5.7,7.1,9.5,13.2,9.6c-4.9,3.8-10.9,6.5-17.6,6.5c-1.1,0-2.3-0.1-3.3-0.2
		c6.2,4.1,13.8,6.2,21.7,6.2c26.2,0,40.4-21.6,40.4-40.4c0-0.6,0-1.3,0-1.9C183.2,37.1,185.5,34.5,187.5,31.7z"/>
</g>
<g>
	<path d="M200,50c0-0.8,0-1.5,0-2.3c20.9-0.4,38.1-2.7,52.2-7.1c1.6,3.2,3,6.3,4.4,9.6c-1.3,0.3-2.5,0.7-3.8,1.1
		c-15.7,5.6-29.1,16.5-39.6,32.6C205,75,200,63.1,200,50z M201,40c3.1-15.7,13.8-28.8,28-35.4c8,9.7,14.5,19.5,19.7,29.2
		C235.7,37.6,220,39.7,201,40z M250,100c-11.7,0-22.6-4.1-31-10.7c11.7-18.4,25.9-27.9,40.4-32c5.3,14.2,8.3,27.3,10.3,38.7
		C263.5,98.6,256.9,100,250,100z M237.5,1.6c4.1-1,8.2-1.6,12.5-1.6c12.8,0,24.6,4.9,33.3,12.8c-6.7,7.8-15.4,13.8-26.4,18.2
		C251.8,21.3,245.4,11.3,237.5,1.6z M265,48.2c-1.4-3.5-3-6.9-4.6-10.5c11.6-4.6,20.9-11.1,28.3-19.4c7,8.5,11.2,19.5,11.3,31.4
		C287.6,47,275.9,46.4,265,48.2z M277.5,91.7c-2-10.7-4.8-23-9.7-36.1c11-1.6,21.9-0.5,31.6,2C297.3,71.8,289.1,84,277.5,91.7z"/>
</g>
<path d="M314.6,14.6c-19.5,19.5-19.5,51.2,0,70.7c19.5,19.5,51.2,19.5,70.7,0c19.5-19.5,19.5-51.2,0-70.7
	C365.8-4.9,334.2-4.9,314.6,14.6z M372.1,29.4l-1.7,52.5c0,0.9-0.8,1.7-1.7,1.7l-16,0.5c-0.9,0-1.6-0.7-1.6-1.6l1.1-34.9l-34.9,1.1
	c-0.9,0-1.6-0.7-1.6-1.6l0.5-16c0.1-0.4,0.2-0.8,0.5-1.2c0.3-0.3,0.7-0.5,1.2-0.5l52.5-1.7C371.4,27.8,372.2,28.6,372.1,29.4z"/>
<g>
	<path d="M50,100c-27.6,0-50,22.4-50,50c0,27.6,22.4,50,50,50s50-22.4,50-50C100,122.4,77.6,100,50,100z M83,182H66v-35.9L56.2,182
		H43.2L32,146.1V182H17v-64h24.5l8.6,33.1l7.7-33.1H83V182z"/>
</g>
</svg>
